<?xml version="1.0" encoding="UTF-8"?>
<svg id="Ebene_2" data-name="Ebene 2" xmlns="http://www.w3.org/2000/svg" viewBox="0 0 33.59 33.58">
  <defs>
    <style>
      .cls-1 {
        fill: #00b2ff;
      }
    </style>
  </defs>
  <g id="Ebene_1-2" data-name="Ebene 1">
    <g>
      <path class="cls-1" d="M17.76,24.01c-3.16,2.71-6.77,4.9-10.7,6.46C2.79,27.43,0,22.44,0,16.79S2.8,6.12,7.1,3.09c1.29,8.11,5.12,15.36,10.66,20.92Z"/>
      <path class="cls-1" d="M26.44,30.54c-2.73,1.91-6.06,3.04-9.65,3.04-1.65,0-3.25-.24-4.75-.68,3.24-1.68,6.14-3.78,8.69-6.22,1.78,1.46,3.69,2.75,5.71,3.86Z"/>
      <path class="cls-1" d="M29.57,5.9c-1.71,5.72-4.71,10.87-8.68,15.12C16.92,15.03,14.61,7.86,14.58.15c.72-.1,1.46-.15,2.21-.15,5.12,0,9.7,2.29,12.78,5.9Z"/>
      <path class="cls-1" d="M33.59,16.79c0,4.91-2.11,9.32-5.46,12.4-1.8-1.53-3.46-3.22-4.96-5.05,3.93-4.51,6.75-9.87,8.23-15.64,1.39,2.44,2.19,5.27,2.19,8.29Z"/>
      <path class="cls-1" d="M17.76,24.01c-3.16,2.71-6.77,4.9-10.7,6.46C2.79,27.43,0,22.44,0,16.79S2.8,6.12,7.1,3.09c1.29,8.11,5.12,15.36,10.66,20.92Z"/>
      <path class="cls-1" d="M29.57,5.9c-1.71,5.72-4.71,10.87-8.68,15.12C16.92,15.03,14.61,7.86,14.58.15c.72-.1,1.46-.15,2.21-.15,5.12,0,9.7,2.29,12.78,5.9Z"/>
      <path class="cls-1" d="M7.1,3.09c1.29,8.11,5.12,15.36,10.66,20.92-3.16,2.71-6.77,4.9-10.7,6.46C2.79,27.43,0,22.44,0,16.79S2.8,6.12,7.1,3.09Z"/>
      <path class="cls-1" d="M29.57,5.9c-1.71,5.72-4.71,10.87-8.68,15.12C16.92,15.03,14.61,7.86,14.58.15c.72-.1,1.46-.15,2.21-.15,5.12,0,9.7,2.29,12.78,5.9Z"/>
    </g>
  </g>
</svg>